<?xml version="1.0" standalone="no"?>
<!DOCTYPE svg PUBLIC "-//W3C//DTD SVG 20010904//EN"
 "http://www.w3.org/TR/2001/REC-SVG-20010904/DTD/svg10.dtd">
<svg version="1.0" xmlns="http://www.w3.org/2000/svg"
 width="16.000000pt" height="16.000000pt" viewBox="0 0 16.000000 16.000000"
 preserveAspectRatio="xMidYMid meet">
<metadata>
Created by potrace 1.11, written by Peter Selinger 2001-2013
</metadata>
<g transform="translate(0.000000,16.000000) scale(0.002309,-0.002309)"
fill="#000000" stroke="none">
<path d="M3717 5063 l-1137 -1138 0 793 0 792 -165 0 -165 0 0 -958 0 -957
-230 -230 c-126 -126 -230 -233 -230 -237 0 -5 104 -8 230 -8 l230 0 0 -187
c0 -104 -5 -228 -10 -278 -51 -452 -315 -782 -702 -879 -155 -39 -365 -37
-514 4 -345 94 -571 349 -671 755 -15 64 -17 192 -20 1523 l-4 1452 -165 0
-165 0 4 -1492 3 -1493 22 -90 c47 -192 107 -336 196 -469 184 -276 472 -461
816 -522 128 -23 372 -23 500 0 462 83 813 385 961 828 61 180 71 256 76 566
l5 282 289 0 c159 0 289 -2 289 -5 0 -2 -229 -534 -509 -1182 -328 -759 -506
-1181 -500 -1188 11 -11 3039 3011 3039 3032 0 10 -138 13 -656 13 -602 0
-656 1 -650 16 43 113 602 1444 606 1444 4 0 214 -383 469 -852 452 -831 463
-852 449 -877 -54 -94 -1128 -2041 -1128 -2046 0 -3 84 -5 188 -5 l187 0 474
875 475 874 21 -37 c11 -20 225 -414 475 -875 l455 -837 189 0 188 0 -5 22
c-2 13 -495 923 -1095 2023 l-1090 2000 -72 3 c-51 2 -70 6 -67 15 3 7 64 154
137 327 73 173 134 321 137 328 3 6 -1 12 -8 12 -8 0 -526 -512 -1152 -1137z"/>
<path d="M6092 4797 c-210 -397 -382 -729 -382 -737 1 -20 163 -311 175 -313
9 -2 951 1717 962 1756 5 16 -8 17 -183 17 l-189 0 -383 -723z"/>
</g>
</svg>
